#!OML:ASF F:\VICON\USERDATA\INSTALL\rory3\rory3.ASF
:FULLY-SPECIFIED
:DEGREES
744
root 1.0523 10.0013 -6.80281 -20.824 44.0328 0.763284
lowerback 38.6507 0.74404 -4.31093
upperback 15.4758 0.327399 -2.09489
thorax -1.67557 0.491023 -0.101182
lowerneck -0.305603 -10.0863 -14.7502
upperneck -21.6138 -11.4076 19.5101
head -4.10549 -5.8001 8.90749
rclavicle -1.74931e-014 -2.62396e-014
rhumerus 2.9168 32.6007 -63.152
rradius 91.6865
rwrist 17.3932
rhand -46.9601 6.67926
rfingers 7.12502
rthumb -19.669 -22.3457
lclavicle -1.74931e-014 -2.62396e-014
lhumerus 2.85188 -27.3885 59.1886
lradius 90.991
lwrist 4.56566
lhand -32.0602 17.4133
lfingers 7.12502
lthumb -5.30689 47.3269
rfemur -75.462 -6.78396 8.71195
rtibia 86.3681
rfoot 10.9197 -13.5739
rtoes 10.0437
lfemur -75.8143 15.8654 -10.977
ltibia 100.563
lfoot 2.02144 -5.68861
ltoes 1.41862
745
root 1.05289 10 -6.80227 -20.8387 44.0231 0.725795
lowerback 38.5832 0.741514 -4.27223
upperback 15.4719 0.339097 -2.10243
thorax -1.65999 0.498104 -0.131942
lowerneck -0.219483 -9.96147 -14.7182
upperneck -21.6697 -11.2443 19.447
head -4.17289 -5.71925 8.90043
rclavicle -3.97569e-015 -4.05521e-014
rhumerus 2.81876 32.5646 -63.241
rradius 91.6965
rwrist 17.433
rhand -46.8927 6.89169
rfingers 7.12502
rthumb -19.6041 -22.1399
lclavicle -3.97569e-015 -4.05521e-014
lhumerus 2.79794 -27.3565 59.2571
lradius 90.9828
lwrist 4.54397
lhand -32.0948 17.4203
lfingers 7.12502
lthumb -5.34029 47.333
rfemur -75.4673 -6.78446 8.7448
rtibia 86.3731
rfoot 11.0976 -13.2163
rtoes 9.01885
lfemur -75.8384 15.8972 -10.9423
ltibia 100.568
lfoot 2.04967 -5.6937
ltoes 1.73945
746
root 1.05267 9.99929 -6.80332 -20.8347 44.0377 0.729789
lowerback 38.5436 0.75472 -4.25833
upperback 15.4523 0.359485 -2.1099
thorax -1.66995 0.508924 -0.153374
lowerneck -0.109799 -9.88765 -14.5722
upperneck -21.7161 -11.1663 19.2775
head -4.24401 -5.68298 8.83643
rclavicle 3.29983e-014 1.19271e-014
rhumerus 2.68949 32.5026 -63.3255
rradius 91.7042
rwrist 17.4923
rhand -46.8091 7.06542
rfingers 7.12502
rthumb -19.5238 -21.9743
lclavicle 3.29983e-014 1.19271e-014
lhumerus 2.75111 -27.4008 59.2912
lradius 90.9841
lwrist 4.50912
lhand -32.0775 17.3627
lfingers 7.12502
lthumb -5.32355 47.2758
rfemur -75.4747 -6.81491 8.75196
rtibia 86.3831
rfoot 11.1179 -13.165
rtoes 9.00691
lfemur -75.8475 15.9092 -10.9587
ltibia 100.572
lfoot 2.05367 -5.67853
ltoes 2.14327
747
root 1.05149 9.99593 -6.80335 -20.8795 44.0146 0.670352
lowerback 38.5471 0.786915 -4.19647
upperback 15.4195 0.417029 -2.10925
thorax -1.70958 0.540528 -0.204175
lowerneck -0.0502677 -9.86803 -14.2997
upperneck -21.7014 -11.1662 19.037
head -4.2895 -5.68824 8.71732
rclavicle 5.52621e-014 -1.19271e-014
rhumerus 2.53053 32.3938 -63.4355
rradius 91.7033
rwrist 17.5394
rhand -46.7259 7.15505
rfingers 7.12502
rthumb -19.4437 -21.8928
lclavicle 5.52621e-014 -1.19271e-014
lhumerus 2.7573 -27.5137 59.2925
lradius 90.9835
lwrist 4.47129
lhand -32.1269 17.4534
lfingers 7.12502
lthumb -5.37128 47.3653
rfemur -75.5096 -6.78602 8.80677
rtibia 86.3951
rfoot 11.1572 -13.1799
rtoes 8.84799
lfemur -75.8747 15.9503 -10.9266
ltibia 100.581
lfoot 2.05004 -5.69725
ltoes 1.94019
748
root 1.05158 9.99122 -6.80277 -20.8808 43.9425 0.603569
lowerback 38.5051 0.81339 -4.10484
upperback 15.407 0.481024 -2.1028
thorax -1.71313 0.575497 -0.26546
lowerneck -0.0166313 -9.82501 -14.0581
upperneck -21.7726 -11.1201 18.8138
head -4.36032 -5.66738 8.61545
rclavicle -1.31198e-014 4.37326e-014
rhumerus 2.47635 32.3035 -63.4437
rradius 91.6997
rwrist 17.5043
rhand -46.6996 7.16921
rfingers 7.12502
rthumb -19.4185 -21.8812
lclavicle -1.31198e-014 4.37326e-014
lhumerus 2.8672 -27.5662 59.3353
lradius 90.9197
lwrist 4.38629
lhand -32.1866 17.5903
lfingers 7.12502
lthumb -5.42887 47.5008
rfemur -75.606 -6.72411 8.89168
rtibia 86.4023
rfoot 11.2264 -13.1048
rtoes 8.32905
lfemur -75.9656 16.0387 -10.872
ltibia 100.608
lfoot 2.0673 -5.72325
ltoes 1.6539
749
root 1.05131 9.98984 -6.80166 -20.8897 43.8777 0.553937
lowerback 38.4568 0.831466 -4.07106
upperback 15.4292 0.51991 -2.06736
thorax -1.67506 0.593454 -0.257621
lowerneck -0.107872 -9.74016 -14.1135
upperneck -21.7418 -11.0005 18.764
head -4.35655 -5.59603 8.60597
rclavicle 2.90226e-014 -4.6118e-014
rhumerus 2.53909 32.2769 -63.3517
rradius 91.6979
rwrist 17.4865
rhand -46.7121 6.70289
rfingers 7.12502
rthumb -19.4305 -22.3463
lclavicle 2.90226e-014 -4.6118e-014
lhumerus 2.98287 -27.4804 59.4478
lradius 90.8278
lwrist 4.30618
lhand -32.0922 17.5367
lfingers 7.12502
lthumb -5.33771 47.4494
rfemur -75.6342 -6.66737 8.95682
rtibia 86.3926
rfoot 11.1821 -13.2275
rtoes 8.6712
lfemur -76.007 16.1149 -10.8008
ltibia 100.632
lfoot 2.08731 -5.74861
ltoes 1.84166
750
root 1.0494 9.98962 -6.80178 -20.9059 43.9015 0.584665
lowerback 38.4664 0.861363 -4.14691
upperback 15.4604 0.537509 -2.00679
thorax -1.64287 0.595538 -0.160718
lowerneck -0.392999 -9.64155 -14.3916
upperneck -21.4496 -10.8558 18.8252
head -4.22176 -5.49799 8.63998
rclavicle -2.06736e-014 -1.03368e-014
rhumerus 2.6069 32.285 -63.2205
rradius 91.7139
rwrist 17.4824
rhand -46.7667 5.66902
rfingers 7.12502
rthumb -19.483 -23.3749
lclavicle -2.06736e-014 -1.03368e-014
lhumerus 3.05068 -27.3704 59.6059
lradius 90.7568
lwrist 4.23586
lhand -31.9696 17.4548
lfingers 7.12502
lthumb -5.2194 47.3706
rfemur -75.5696 -6.65507 8.89998
rtibia 86.3839
rfoot 11.1401 -13.1406
rtoes 8.59722
lfemur -75.9634 16.0888 -10.8105
ltibia 100.631
lfoot 2.10294 -5.77339
ltoes 1.78354
751
root 1.04901 9.98809 -6.80476 -20.9167 43.9725 0.614825
lowerback 38.4851 0.852176 -4.13976
upperback 15.4712 0.532124 -1.98462
thorax -1.63702 0.593174 -0.139483
lowerneck -0.574732 -9.51122 -14.4519
upperneck -21.3089 -10.6734 18.7402
head -4.18336 -5.38946 8.61045
rclavicle -1.78906e-014 1.59028e-015
rhumerus 2.59629 32.2639 -63.1497
rradius 91.7293
rwrist 17.436
rhand -46.8657 4.81332
rfingers 7.12502
rthumb -19.5782 -24.2209
lclavicle -1.78906e-014 1.59028e-015
lhumerus 3.1008 -27.3706 59.7021
lradius 90.7271
lwrist 4.2112
lhand -31.9295 17.4495
lfingers 7.12502
lthumb -5.18068 47.3661
rfemur -75.5295 -6.69656 8.82386
rtibia 86.3952
rfoot 11.1273 -13.2855
rtoes 8.90522
lfemur -75.9366 15.9871 -10.8581
ltibia 100.625
lfoot 2.12121 -5.75291
ltoes 1.68575
752
root 1.05272 9.9832 -6.80588 -20.9569 44.0018 0.539089
lowerback 38.4569 0.797204 -3.98865
upperback 15.4779 0.518691 -1.99373
thorax -1.62332 0.594821 -0.221718
lowerneck -0.601032 -9.34747 -14.1573
upperneck -21.4256 -10.4571 18.4101
head -4.29681 -5.27692 8.47138
rclavicle 5.40694e-014 -1.03368e-014
rhumerus 2.56254 32.2114 -63.1412
rradius 91.742
rwrist 17.4197
rhand -46.8442 4.26263
rfingers 7.12502
rthumb -19.5575 -24.7737
lclavicle 5.40694e-014 -1.03368e-014
lhumerus 3.15346 -27.4018 59.7082
lradius 90.728
lwrist 4.25245
lhand -31.8673 17.4149
lfingers 7.12502
lthumb -5.12065 47.333
rfemur -75.5698 -6.765 8.86395
rtibia 86.4328
rfoot 11.1606 -13.2789
rtoes 8.81951
lfemur -75.9939 15.935 -10.828
ltibia 100.652
lfoot 2.12099 -5.70832
ltoes 2.02428
753
root 1.05609 9.97645 -6.80281 -21.0688 43.9925 0.417183
lowerback 38.4657 0.774411 -3.86581
upperback 15.4913 0.53601 -1.9646
thorax -1.61392 0.608365 -0.260079
lowerneck -0.716047 -9.16028 -13.93
upperneck -21.4342 -10.2055 18.111
head -4.36037 -5.1415 8.34164
rclavicle -2.22639e-014 1.27222e-014
rhumerus 2.52609 32.1491 -63.1276
rradius 91.7669
rwrist 17.4485
rhand -46.752 4.24901
rfingers 7.12502
rthumb -19.4689 -24.7963
lclavicle -2.22639e-014 1.27222e-014
lhumerus 3.2376 -27.398 59.7598
lradius 90.6758
lwrist 4.24489
lhand -31.7975 17.314
lfingers 7.12502
lthumb -5.05323 47.2338
rfemur -75.5772 -6.80355 8.95689
rtibia 86.4816
rfoot 11.1325 -13.2629
rtoes 8.91773
lfemur -76.033 15.9576 -10.7312
ltibia 100.715
lfoot 2.12153 -5.7332
ltoes 2.15712
754
root 1.05556 9.97266 -6.79962 -21.2559 43.9651 0.255766
lowerback 38.5328 0.773753 -3.74384
upperback 15.4811 0.576084 -1.93168
thorax -1.6489 0.633443 -0.302834
lowerneck -0.91556 -8.93257 -13.864
upperneck -21.2845 -9.88584 17.9653
head -4.34912 -4.96895 8.27507
rclavicle 7.11649e-014 1.98785e-014
rhumerus 2.41111 32.0863 -63.1847
rradius 91.7725
rwrist 17.4457
rhand -46.8109 4.47946
rfingers 7.12502
rthumb -19.5255 -24.5601
lclavicle 7.11649e-014 1.98785e-014
lhumerus 3.30599 -27.4326 59.8351
lradius 90.5784
lwrist 4.191
lhand -31.7691 17.3002
lfingers 7.12502
lthumb -5.02578 47.2206
rfemur -75.5016 -6.77662 9.07808
rtibia 86.5096
rfoot 11.0853 -13.2897
rtoes 9.03154
lfemur -75.9975 15.9989 -10.5807
ltibia 100.768
lfoot 2.13461 -5.82309
ltoes 2.03082
